<svg xmlns="http://www.w3.org/2000/svg" width="38.521" height="38.952" viewBox="0 0 38.521 38.952">
  <path id="bot" d="M38.021,13.763h-.574A5.079,5.079,0,0,0,32.4,9.211H23V7.378a3.748,3.748,0,1,0-1.826,0V9.211h-9.4a5.079,5.079,0,0,0-5.046,4.553H6.153A3.33,3.33,0,0,0,2.826,17.09v7.763A3.33,3.33,0,0,0,6.153,28.18h.574a5.079,5.079,0,0,0,5.046,4.553h6.2L21.3,38.491a.913.913,0,0,0,1.581,0L26.2,32.733h6.2a5.079,5.079,0,0,0,5.046-4.553h.574a3.33,3.33,0,0,0,3.327-3.327V17.09a3.33,3.33,0,0,0-3.327-3.327ZM20.165,3.744a1.922,1.922,0,1,1,1.922,1.922A1.922,1.922,0,0,1,20.165,3.744ZM4.652,24.853V17.09a1.5,1.5,0,0,1,1.5-1.5H6.7V26.354H6.153A1.5,1.5,0,0,1,4.652,24.853Zm31,2.807A3.25,3.25,0,0,1,32.4,30.907H25.675a.913.913,0,0,0-.791.456l-2.8,4.846-2.8-4.846a.913.913,0,0,0-.791-.456H11.773A3.25,3.25,0,0,1,8.526,27.66V14.283a3.25,3.25,0,0,1,3.246-3.246H32.4a3.25,3.25,0,0,1,3.246,3.246Zm3.874-2.807a1.5,1.5,0,0,1-1.5,1.5h-.548V15.589h.548a1.5,1.5,0,0,1,1.5,1.5ZM14.786,15.712a3.122,3.122,0,1,0,3.122,3.122A3.122,3.122,0,0,0,14.786,15.712Zm0,4.418a1.3,1.3,0,1,1,1.3-1.3A1.3,1.3,0,0,1,14.786,20.13Zm14.6-4.418a3.122,3.122,0,1,0,3.122,3.122A3.122,3.122,0,0,0,29.387,15.712Zm0,4.418a1.3,1.3,0,1,1,1.3-1.3,1.3,1.3,0,0,1-1.3,1.3ZM26.98,25.02a5.52,5.52,0,0,1-9.787,0,.913.913,0,1,1,1.619-.844,3.694,3.694,0,0,0,6.55,0,.913.913,0,1,1,1.619.844Z" transform="translate(-2.826 0.004)" fill="#13141d"/>
</svg>
