<svg id="brightness" xmlns="http://www.w3.org/2000/svg" width="26.859" height="26.859" viewBox="0 0 26.859 26.859">
  <path id="Path_4099" data-name="Path 4099" d="M241.787,4.1a.787.787,0,0,0,.787-.787V.787a.787.787,0,0,0-1.574,0V3.315A.787.787,0,0,0,241.787,4.1Z" transform="translate(-228.357)" fill="#13141d"/>
  <path id="Path_4100" data-name="Path 4100" d="M241.787,433.8a.787.787,0,0,0-.787.787v2.529a.787.787,0,0,0,1.574,0v-2.529A.787.787,0,0,0,241.787,433.8Z" transform="translate(-228.357 -411.043)" fill="#13141d"/>
  <path id="Path_4101" data-name="Path 4101" d="M437.115,241h-2.529a.787.787,0,1,0,0,1.574h2.529a.787.787,0,0,0,0-1.574Z" transform="translate(-411.043 -228.357)" fill="#13141d"/>
  <path id="Path_4102" data-name="Path 4102" d="M4.1,241.787A.787.787,0,0,0,3.315,241H.787a.787.787,0,0,0,0,1.574H3.315A.787.787,0,0,0,4.1,241.787Z" transform="translate(0 -228.357)" fill="#13141d"/>
  <path id="Path_4103" data-name="Path 4103" d="M378.677,73.719l1.788-1.788a.787.787,0,0,0-1.113-1.113l-1.788,1.788a.787.787,0,0,0,1.113,1.113Z" transform="translate(-357.539 -66.886)" fill="#13141d"/>
  <path id="Path_4104" data-name="Path 4104" d="M72.608,377.564l-1.788,1.788a.787.787,0,0,0,1.113,1.113l1.788-1.788a.787.787,0,0,0-1.113-1.113Z" transform="translate(-66.886 -357.539)" fill="#13141d"/>
  <path id="Path_4105" data-name="Path 4105" d="M378.677,377.565a.787.787,0,0,0-1.113,1.113l1.788,1.788a.787.787,0,0,0,1.113-1.113Z" transform="translate(-357.539 -357.54)" fill="#13141d"/>
  <path id="Path_4106" data-name="Path 4106" d="M72.607,73.719a.787.787,0,0,0,1.113-1.113l-1.788-1.788a.787.787,0,0,0-1.113,1.113Z" transform="translate(-66.886 -66.886)" fill="#13141d"/>
  <path id="Path_4107" data-name="Path 4107" d="M135.22,128.533a6.687,6.687,0,1,0,6.687,6.687A6.694,6.694,0,0,0,135.22,128.533Zm0,11.8a5.113,5.113,0,1,1,5.113-5.113A5.119,5.119,0,0,1,135.22,140.333Z" transform="translate(-121.79 -121.79)" fill="#13141d"/>
</svg>
