<svg id="XMLID_1_" xmlns="http://www.w3.org/2000/svg" width="34.68" height="34.419" viewBox="0 0 34.68 34.419">
  <path id="Path_4077" data-name="Path 4077" d="M14.222,9.09l12.73,2.529a2.135,2.135,0,0,1,1.72,2.11V28.467A2.165,2.165,0,0,1,26.5,30.635h-13a.715.715,0,0,0,.722-.722V29.19H26.5a.725.725,0,0,0,.722-.722V13.728a.726.726,0,0,0-.564-.708L14.223,10.564Z" transform="translate(6.007 3.784)" fill="#13141d"/>
  <path id="Path_4078" data-name="Path 4078" d="M20.612,14a.722.722,0,1,1,0,1.445h-2.89a.722.722,0,1,1,0-1.445Z" transform="translate(7.565 5.969)" fill="#13141d"/>
  <path id="Path_4079" data-name="Path 4079" d="M20.612,17a.722.722,0,1,1,0,1.445h-2.89a.722.722,0,1,1,0-1.445Z" transform="translate(7.565 7.304)" fill="#13141d"/>
  <path id="Path_4080" data-name="Path 4080" d="M20.612,20a.722.722,0,1,1,0,1.445h-2.89a.722.722,0,1,1,0-1.445Z" transform="translate(7.565 8.639)" fill="#13141d"/>
  <path id="Path_4081" data-name="Path 4081" d="M14.445,29.952a.722.722,0,0,1-1.445,0V9.722a.768.768,0,0,1,.26-.564.759.759,0,0,1,.607-.144l.578.116V29.952Z" transform="translate(5.785 3.744)" fill="#13141d"/>
  <path id="Path_4082" data-name="Path 4082" d="M14.557,23v.722a.715.715,0,0,0,.722.722H9.5a.715.715,0,0,0,.722-.722V23Z" transform="translate(4.227 9.974)" fill="#13141d"/>
  <path id="Path_4083" data-name="Path 4083" d="M11.612,5a.722.722,0,0,1,0,1.445H8.722A.722.722,0,0,1,8.722,5Z" transform="translate(3.56 1.964)" fill="#13141d"/>
  <path id="Path_4084" data-name="Path 4084" d="M12.335,8.722a.715.715,0,0,1-.722.722H8.722A.722.722,0,0,1,8.722,8h2.89A.715.715,0,0,1,12.335,8.722Z" transform="translate(3.56 3.299)" fill="#13141d"/>
  <path id="Path_4085" data-name="Path 4085" d="M11.612,11a.722.722,0,0,1,0,1.445H8.722a.722.722,0,0,1,0-1.445Z" transform="translate(3.56 4.634)" fill="#13141d"/>
  <path id="Path_4086" data-name="Path 4086" d="M11.612,14a.722.722,0,0,1,0,1.445H8.722a.722.722,0,0,1,0-1.445Z" transform="translate(3.56 5.969)" fill="#13141d"/>
  <path id="Path_4087" data-name="Path 4087" d="M7.335,14.722a.715.715,0,0,1-.722.722H3.722a.722.722,0,0,1,0-1.445h2.89A.715.715,0,0,1,7.335,14.722Z" transform="translate(1.335 5.969)" fill="#13141d"/>
  <path id="Path_4088" data-name="Path 4088" d="M6.612,5a.722.722,0,0,1,0,1.445H3.722A.722.722,0,0,1,3.722,5Z" transform="translate(1.335 1.964)" fill="#13141d"/>
  <path id="Path_4089" data-name="Path 4089" d="M6.612,8a.722.722,0,1,1,0,1.445H3.722A.722.722,0,0,1,3.722,8Z" transform="translate(1.335 3.299)" fill="#13141d"/>
  <path id="Path_4090" data-name="Path 4090" d="M6.612,11a.722.722,0,1,1,0,1.445H3.722a.722.722,0,0,1,0-1.445Z" transform="translate(1.335 4.634)" fill="#13141d"/>
  <path id="Path_4091" data-name="Path 4091" d="M11.225,19.167a.725.725,0,0,0-.722-.722H6.167a.715.715,0,0,0-.722.722v6.5H4v-6.5A2.165,2.165,0,0,1,6.167,17H10.5a2.165,2.165,0,0,1,2.167,2.167v6.5H11.225Z" transform="translate(1.78 7.304)" fill="#13141d"/>
  <path id="Path_4092" data-name="Path 4092" d="M5.445,23H12.67v.722a.715.715,0,0,1-.722.722H4.722A.715.715,0,0,1,4,23.722V23Z" transform="translate(1.78 9.974)" fill="#13141d"/>
  <path id="Path_4093" data-name="Path 4093" d="M2.529.209,18.409,2.622A2.159,2.159,0,0,1,20.23,4.76v8.294l-.578-.116a.759.759,0,0,0-.607.145.768.768,0,0,0-.26.564V4.76a.731.731,0,0,0-.607-.722L2.3,1.639a.4.4,0,0,0-.13-.014.682.682,0,0,0-.462.173.691.691,0,0,0-.26.549V32.432a.725.725,0,0,0,.722.722H5.78v.722A.715.715,0,0,0,6.5,34.6H2.167A2.165,2.165,0,0,1,0,32.432V2.347A2.128,2.128,0,0,1,.766.7,2.169,2.169,0,0,1,2.529.209Z" transform="translate(0 -0.181)" fill="#13141d"/>
</svg>
