<svg id="cyber-security" xmlns="http://www.w3.org/2000/svg" width="32.268" height="37.177" viewBox="0 0 32.268 37.177">
  <g id="Group_1307" data-name="Group 1307">
    <path id="Path_4094" data-name="Path 4094" d="M231.439,129.177H231a3.414,3.414,0,0,1-1.2-.217,21.287,21.287,0,0,1-10.117-7.634,24.637,24.637,0,0,1-4.01-9.712,34.558,34.558,0,0,1-.183-11.649,3.414,3.414,0,0,1,2.047-2.537L229.9,92.265a3.425,3.425,0,0,1,2.641,0L244.9,97.429a3.414,3.414,0,0,1,2.047,2.537,34.563,34.563,0,0,1-.183,11.649,24.637,24.637,0,0,1-4.01,9.712,21.287,21.287,0,0,1-10.117,7.634A3.413,3.413,0,0,1,231.439,129.177Zm-.22-35.9a2.138,2.138,0,0,0-.828.166L218.03,98.607a2.142,2.142,0,0,0-1.284,1.591,33.132,33.132,0,0,0,.181,11.175,23.373,23.373,0,0,0,3.8,9.213,20.033,20.033,0,0,0,9.524,7.178,2.142,2.142,0,0,0,.753.136h.439a2.141,2.141,0,0,0,.753-.136,20.033,20.033,0,0,0,9.524-7.178,23.373,23.373,0,0,0,3.8-9.213,33.136,33.136,0,0,0,.181-11.175,2.142,2.142,0,0,0-1.284-1.591l-12.362-5.164A2.138,2.138,0,0,0,231.219,93.276Z" transform="translate(-215.086 -92)" fill="#13141d"/>
  </g>
  <g id="Group_1308" data-name="Group 1308" transform="translate(2.786 2.787)">
    <path id="Path_4095" data-name="Path 4095" d="M368.329,263.325h-.44a.638.638,0,0,1-.224-.04,18.55,18.55,0,0,1-8.823-6.639,21.878,21.878,0,0,1-3.544-8.623,32.091,32.091,0,0,1-.5-7.423,25.818,25.818,0,0,1,.322-3.191.638.638,0,0,1,.382-.473l12.362-5.164a.638.638,0,0,1,.492,0l12.362,5.164a.638.638,0,0,1,.382.473,25.83,25.83,0,0,1,.322,3.191,32.089,32.089,0,0,1-.5,7.423,21.878,21.878,0,0,1-3.544,8.623,18.549,18.549,0,0,1-8.823,6.639A.637.637,0,0,1,368.329,263.325Zm-.323-1.276h.207c6.231-2.369,10.084-7.169,11.453-14.269a31.04,31.04,0,0,0,.231-9.8l-11.787-4.925-11.788,4.925c-.071.479-.192,1.445-.251,2.722a30.76,30.76,0,0,0,.489,7.12C357.935,254.9,361.786,259.684,368.005,262.049Z" transform="translate(-354.761 -231.721)" fill="#13141d"/>
  </g>
  <g id="Group_1309" data-name="Group 1309" transform="translate(10.061 15.497)">
    <path id="Path_4096" data-name="Path 4096" d="M728.689,879.972h-6.152a3,3,0,0,1-3-3v-5a3,3,0,0,1,3-3h6.152a3,3,0,0,1,3,3v5A3,3,0,0,1,728.689,879.972Zm-6.152-9.716a1.722,1.722,0,0,0-1.72,1.72v5a1.722,1.722,0,0,0,1.72,1.72h6.152a1.722,1.722,0,0,0,1.72-1.72v-5a1.722,1.722,0,0,0-1.72-1.72Zm3.076,4.982a1.768,1.768,0,1,1,1.768-1.768A1.77,1.77,0,0,1,725.612,875.239Zm0-2.26a.492.492,0,1,0,.492.492A.492.492,0,0,0,725.612,872.979Z" transform="translate(-719.54 -868.98)" fill="#13141d"/>
  </g>
  <g id="Group_1310" data-name="Group 1310" transform="translate(11.521 9.567)">
    <path id="Path_4097" data-name="Path 4097" d="M801.312,578.9a.638.638,0,0,1-.638-.638v-1.955a3.336,3.336,0,0,0-6.673,0v1.955a.638.638,0,1,1-1.276,0v-1.955a4.613,4.613,0,1,1,9.226,0v1.955A.638.638,0,0,1,801.312,578.9Z" transform="translate(-792.725 -571.695)" fill="#13141d"/>
  </g>
  <g id="Group_1311" data-name="Group 1311" transform="translate(15.495 20.479)">
    <path id="Path_4098" data-name="Path 4098" d="M992.638,1121.971a.638.638,0,0,1-.638-.638v-1.9a.638.638,0,0,1,1.276,0v1.9A.638.638,0,0,1,992.638,1121.971Z" transform="translate(-992 -1118.79)" fill="#13141d"/>
  </g>
</svg>
