<svg id="Group_2408" data-name="Group 2408" xmlns="http://www.w3.org/2000/svg" width="21.732" height="32.551" viewBox="0 0 21.732 32.551">
  <path id="Path_9" data-name="Path 9" d="M126.831,2.241a2.24,2.24,0,1,0-2.24,2.24,2.24,2.24,0,0,0,2.24-2.24" transform="translate(-105.101 -0.001)" fill="#13141d"/>
  <path id="Path_10" data-name="Path 10" d="M36.269,33.586A8.013,8.013,0,1,0,28.255,41.6a8.014,8.014,0,0,0,8.014-8.014" transform="translate(-17.388 -21.967)" fill="#13141d"/>
  <path id="Path_11" data-name="Path 11" d="M20.342,127.55l0,0h0a5.343,5.343,0,0,0-.531-.508h0c.645-.733.185-6.214.185-6.214h0a8.445,8.445,0,0,1-7.724,5.028h0c-.652,0-1.444.009-2.079.008H9.165c-2.339,0-1.453,0-3.792,0a6.892,6.892,0,0,0-1.016.078A5.252,5.252,0,0,0,.071,130.25h0v0A4.9,4.9,0,0,0,.087,132a5.228,5.228,0,0,0,5.237,4.337c2.378,0,1.531,0,3.909,0h0c2.482,0,4.694-.009,7.175-.011a5.418,5.418,0,0,0,2.64-.668h0a5.264,5.264,0,0,0,2.595-3.667,5.193,5.193,0,0,0-1.3-4.442" transform="translate(0 -103.789)" fill="#13141d"/>
</svg>
