<svg xmlns="http://www.w3.org/2000/svg" xmlns:xlink="http://www.w3.org/1999/xlink" width="22.771" height="27.259" viewBox="0 0 22.771 27.259">
  <defs>
    <clipPath id="clip-path">
      <rect id="Rectangle_781" data-name="Rectangle 781" width="22.772" height="27.259" fill="#13141d"/>
    </clipPath>
  </defs>
  <g id="Group_2409" data-name="Group 2409" clip-path="url(#clip-path)">
    <path id="Path_4283" data-name="Path 4283" d="M18.532,211.44H4.215c-4.45-.614-4.586-4.408-3.922-8.046.544-2.978,2.162-6.108,5.648-6.059.707.01,1.832.992,2.5,1.341a6.178,6.178,0,0,0,6.013-.073c.65-.357,1.674-1.269,2.4-1.269,4.836,0,6.165,6.105,5.882,9.927a4.5,4.5,0,0,1-4.2,4.178M5.8,198.944c-2.618.1-3.586,2.667-3.965,4.876a11.342,11.342,0,0,0-.085,4.043,2.9,2.9,0,0,0,2.754,1.983H18.241c2.91-.268,3.054-2.408,2.845-4.818-.215-2.475-1.121-6.007-4.171-6.079a21.243,21.243,0,0,1-2.72,1.529c-3.029,1.163-5.778.351-8.282-1.518Z" transform="translate(0 -184.181)" fill="#13141d"/>
    <path id="Path_4284" data-name="Path 4284" d="M80.654,11.221A6.591,6.591,0,0,1,69.44,6.958a6.574,6.574,0,1,1,11.213,4.263M75.5,1.623a4.979,4.979,0,1,0,4.27,8.208A5,5,0,0,0,75.5,1.623" transform="translate(-64.801 0)" fill="#13141d"/>
  </g>
</svg>
