<svg id="meeting" xmlns="http://www.w3.org/2000/svg" width="37.439" height="35.88" viewBox="0 0 37.439 35.88">
  <path id="Path_4052" data-name="Path 4052" d="M245.332,341.332h1.56v10.92h-1.56Zm0,0" transform="translate(-227.392 -316.373)" fill="#13141d"/>
  <path id="Path_4053" data-name="Path 4053" d="M96,298.668h23.4v1.56H96Zm0,0" transform="translate(-88.98 -276.828)" fill="#13141d"/>
  <path id="Path_4054" data-name="Path 4054" d="M409.232,61.132a3.9,3.9,0,1,1,3.9-3.9A3.9,3.9,0,0,1,409.232,61.132Zm0-6.24a2.34,2.34,0,1,0,2.34,2.34A2.343,2.343,0,0,0,409.232,54.892Zm0,0" transform="translate(-375.693 -49.432)" fill="#13141d"/>
  <path id="Path_4055" data-name="Path 4055" d="M302.568,203.952a.765.765,0,0,1-.307-.063.779.779,0,0,1-.409-1.024l2.34-5.46a.779.779,0,0,1,.717-.472h5.46a2.343,2.343,0,0,0,2.34-2.34v-10.14a1.562,1.562,0,0,0-1.56-1.56h-.78c-.548,0-1.046.362-1.718,1.251-.754,1-3.04,3.8-3.137,3.922a.782.782,0,0,1-.605.287h-3.9a.78.78,0,0,0-.78.78v1.56a.78.78,0,1,1-1.56,0v-1.56a2.343,2.343,0,0,1,2.34-2.34h3.529c.615-.757,2.271-2.8,2.869-3.59a3.869,3.869,0,0,1,2.962-1.87h.78a3.123,3.123,0,0,1,3.12,3.12v10.14a3.9,3.9,0,0,1-3.9,3.9h-4.946l-2.137,4.987A.779.779,0,0,1,302.568,203.952Zm0,0" transform="translate(-276.828 -168.072)" fill="#13141d"/>
  <path id="Path_4056" data-name="Path 4056" d="M299.451,312.708a.781.781,0,0,1-.739-1.027l2.586-7.76a3.114,3.114,0,0,1,2.959-2.133h2.213v-2.34a.78.78,0,0,1,1.56,0v3.12a.779.779,0,0,1-.78.78h-2.993a1.556,1.556,0,0,0-1.479,1.065l-2.587,7.761A.781.781,0,0,1,299.451,312.708Zm0,0" transform="translate(-276.831 -276.828)" fill="#13141d"/>
  <path id="Path_4057" data-name="Path 4057" d="M406.109,260.69a.78.78,0,0,1-.623-1.247l2.34-3.12a.78.78,0,0,1,1.247.935l-2.34,3.12A.775.775,0,0,1,406.109,260.69Zm0,0" transform="translate(-375.69 -237.291)" fill="#13141d"/>
  <path id="Path_4058" data-name="Path 4058" d="M3.9,61.132a3.9,3.9,0,1,1,3.9-3.9A3.9,3.9,0,0,1,3.9,61.132Zm0-6.24a2.34,2.34,0,1,0,2.34,2.34A2.343,2.343,0,0,0,3.9,54.892Zm0,0" transform="translate(0 -49.432)" fill="#13141d"/>
  <path id="Path_4059" data-name="Path 4059" d="M11.7,203.952a.779.779,0,0,1-.717-.473l-2.137-4.987H3.9a3.9,3.9,0,0,1-3.9-3.9v-10.14a3.123,3.123,0,0,1,3.12-3.12H3.9a3.865,3.865,0,0,1,2.962,1.87c.6.79,2.254,2.834,2.869,3.59H13.26a2.343,2.343,0,0,1,2.34,2.34v1.56a.78.78,0,1,1-1.56,0v-1.56a.781.781,0,0,0-.78-.78H9.36a.778.778,0,0,1-.6-.287c-.1-.119-2.385-2.926-3.137-3.922-.672-.888-1.17-1.25-1.718-1.25H3.12a1.562,1.562,0,0,0-1.56,1.56v10.14a2.343,2.343,0,0,0,2.34,2.34H9.36a.779.779,0,0,1,.717.472l2.34,5.46a.78.78,0,0,1-.409,1.024A.765.765,0,0,1,11.7,203.952Zm0,0" transform="translate(0 -168.072)" fill="#13141d"/>
  <path id="Path_4060" data-name="Path 4060" d="M93.912,312.708a.781.781,0,0,1-.74-.534l-2.586-7.76a1.558,1.558,0,0,0-1.48-1.066H86.112a.78.78,0,0,1-.78-.78v-3.12a.78.78,0,0,1,1.56,0v2.34h2.213a3.116,3.116,0,0,1,2.96,2.133l2.586,7.76a.78.78,0,0,1-.493.987A.792.792,0,0,1,93.912,312.708Zm0,0" transform="translate(-79.092 -276.828)" fill="#13141d"/>
  <path id="Path_4061" data-name="Path 4061" d="M56.451,260.69a.78.78,0,0,1-.625-.312l-2.34-3.12a.78.78,0,0,1,1.248-.935l2.34,3.12a.78.78,0,0,1-.623,1.247Zm0,0" transform="translate(-49.43 -237.291)" fill="#13141d"/>
  <path id="Path_4062" data-name="Path 4062" d="M173.26,138.92a.779.779,0,0,1-.78-.78v-5.46a3.123,3.123,0,0,0-3.12-3.12h-4.68a3.123,3.123,0,0,0-3.12,3.12v2.34a.78.78,0,1,1-1.56,0v-2.34a4.685,4.685,0,0,1,4.68-4.68h4.68a4.685,4.685,0,0,1,4.68,4.68v5.46A.779.779,0,0,1,173.26,138.92Zm0,0" transform="translate(-148.3 -118.64)" fill="#13141d"/>
  <path id="Path_4063" data-name="Path 4063" d="M206.568,7.8a3.9,3.9,0,1,1,3.9-3.9A3.9,3.9,0,0,1,206.568,7.8Zm0-6.24a2.34,2.34,0,1,0,2.34,2.34A2.343,2.343,0,0,0,206.568,1.56Zm0,0" transform="translate(-187.848)" fill="#13141d"/>
  <path id="Path_4064" data-name="Path 4064" d="M245.332,170.668h1.56v1.56h-1.56Zm0,0" transform="translate(-227.392 -158.188)" fill="#13141d"/>
</svg>
