<svg xmlns="http://www.w3.org/2000/svg" width="20.143" height="20.142" viewBox="0 0 20.143 20.142">
  <path id="night-mode" d="M20.937,13.566a.671.671,0,0,0-.7-.157A9.01,9.01,0,0,1,8.726,1.9a.671.671,0,0,0-.856-.858A10.212,10.212,0,0,0,4.025,3.47a10.352,10.352,0,1,0,14.64,14.64A10.211,10.211,0,0,0,21.1,14.265a.671.671,0,0,0-.159-.7ZM17.715,17.16A9.009,9.009,0,1,1,7.07,2.855,10.414,10.414,0,0,0,9.89,12.242a10.411,10.411,0,0,0,9.387,2.819,8.966,8.966,0,0,1-1.561,2.1Z" transform="translate(-0.992 -1)" fill="#13141d"/>
</svg>
