<svg xmlns="http://www.w3.org/2000/svg" width="27.445" height="14.725" viewBox="0 0 27.445 14.725">
  <path id="Path_4285" data-name="Path 4285" d="M26.861,55.538a1.072,1.072,0,0,1-1.442-.464h0c-1.644-3.2-6.008-7.8-11.7-7.8-5.1,0-9.635,3.779-11.7,7.8a1.072,1.072,0,0,1-1.908-.978c2.369-4.625,7.577-8.962,13.6-8.962,6.874,0,11.8,5.433,13.6,8.962A1.072,1.072,0,0,1,26.861,55.538Zm-7.872-.954a5.267,5.267,0,1,1-5.266-5.275A5.277,5.277,0,0,1,18.989,54.583Zm-2.144,0a3.122,3.122,0,1,0-3.122,3.13A3.13,3.13,0,0,0,16.845,54.583Z" transform="translate(0 -45.133)" fill="#13141d"/>
</svg>
