<svg xmlns="http://www.w3.org/2000/svg" width="35.609" height="23.517" viewBox="0 0 35.609 23.517">
  <g id="Layer_3" transform="translate(-7 -15.489)">
    <g id="Group_1907" data-name="Group 1907" transform="translate(6.999 15.489)">
      <g id="ARC_424_" transform="translate(0 16.303)">
        <g id="Group_1888" data-name="Group 1888">
          <path id="Path_4201" data-name="Path 4201" d="M12.117,41.247a.723.723,0,0,1-.1-.007,14.13,14.13,0,0,1-4.638-1.518.713.713,0,1,1,.671-1.258,12.663,12.663,0,0,0,4.17,1.365.713.713,0,0,1-.1,1.418Z" transform="translate(-6.999 -38.381)" fill="#13141d"/>
        </g>
      </g>
      <g id="ARC_423_" transform="translate(29.78 16.304)">
        <g id="Group_1889" data-name="Group 1889">
          <path id="Path_4202" data-name="Path 4202" d="M49.526,41.248a.712.712,0,0,1-.1-1.417,12.657,12.657,0,0,0,4.17-1.365.713.713,0,1,1,.671,1.258,14.13,14.13,0,0,1-4.638,1.518A.844.844,0,0,1,49.526,41.248Z" transform="translate(-48.815 -38.382)" fill="#13141d"/>
        </g>
      </g>
      <g id="ARC_422_" transform="translate(22.33 9.203)">
        <g id="Group_1890" data-name="Group 1890">
          <path id="Path_4203" data-name="Path 4203" d="M39.066,31.985a.712.712,0,0,1-.6-1.1,5.428,5.428,0,0,1,4.561-2.472.712.712,0,0,1,0,1.424,4,4,0,0,0-3.368,1.825A.71.71,0,0,1,39.066,31.985Z" transform="translate(-38.354 -28.412)" fill="#13141d"/>
        </g>
      </g>
      <g id="CIRCLE_38_" transform="translate(23.929 1.315)">
        <g id="Group_1891" data-name="Group 1891">
          <path id="Path_4204" data-name="Path 4204" d="M45.257,26.648a4.656,4.656,0,1,1,4.656-4.656A4.719,4.719,0,0,1,45.257,26.648Zm0-7.888a3.232,3.232,0,1,0,3.232,3.232A3.276,3.276,0,0,0,45.257,18.76Z" transform="translate(-40.6 -17.336)" fill="#13141d"/>
        </g>
      </g>
      <g id="ARC_421_" transform="translate(29.451 9.204)">
        <g id="Group_1892" data-name="Group 1892">
          <path id="Path_4205" data-name="Path 4205" d="M53.8,34.57a.712.712,0,0,1-.712-.712,4.026,4.026,0,0,0-4.021-4.021.712.712,0,1,1,0-1.424,5.452,5.452,0,0,1,5.445,5.445A.712.712,0,0,1,53.8,34.57Z" transform="translate(-48.354 -28.413)" fill="#13141d"/>
        </g>
      </g>
      <g id="LINE_818_" transform="translate(26.296 9.203)">
        <g id="Group_1893" data-name="Group 1893">
          <path id="Path_4206" data-name="Path 4206" d="M47.791,29.836H44.635a.712.712,0,0,1,0-1.424h3.156a.712.712,0,0,1,0,1.424Z" transform="translate(-43.923 -28.412)" fill="#13141d"/>
        </g>
      </g>
      <g id="LINE_817_" transform="translate(34.184 13.937)">
        <g id="Group_1894" data-name="Group 1894">
          <path id="Path_4207" data-name="Path 4207" d="M55.712,38.85A.712.712,0,0,1,55,38.138V35.771a.712.712,0,1,1,1.424,0v2.367a.712.712,0,0,1-.712.712Z" transform="translate(-55 -35.059)" fill="#13141d"/>
        </g>
      </g>
      <g id="ARC_420_" transform="translate(8.678 10.519)">
        <g id="Group_1895" data-name="Group 1895">
          <path id="Path_4208" data-name="Path 4208" d="M19.9,37.994a.712.712,0,0,1-.712-.712,7.03,7.03,0,0,1,7.023-7.023.712.712,0,1,1,0,1.424,5.6,5.6,0,0,0-5.6,5.6A.712.712,0,0,1,19.9,37.994Z" transform="translate(-19.185 -30.259)" fill="#13141d"/>
        </g>
      </g>
      <g id="LINE_816_" transform="translate(14.989 10.519)">
        <g id="Group_1896" data-name="Group 1896">
          <path id="Path_4209" data-name="Path 4209" d="M32.966,31.683H28.758a.712.712,0,1,1,0-1.424h4.207a.712.712,0,0,1,0,1.424Z" transform="translate(-28.046 -30.259)" fill="#13141d"/>
        </g>
      </g>
      <g id="ARC_419_" transform="translate(7.89 9.203)">
        <g id="Group_1897" data-name="Group 1897">
          <path id="Path_4210" data-name="Path 4210" d="M22.756,31.985a.712.712,0,0,1-.6-.323,4.008,4.008,0,0,0-3.368-1.825.712.712,0,0,1,0-1.424,5.427,5.427,0,0,1,4.561,2.472.712.712,0,0,1-.6,1.1Z" transform="translate(-18.078 -28.412)" fill="#13141d"/>
        </g>
      </g>
      <g id="LINE_815_" transform="translate(8.678 16.829)">
        <g id="Group_1898" data-name="Group 1898">
          <path id="Path_4211" data-name="Path 4211" d="M19.9,43.7a.712.712,0,0,1-.712-.712V39.832a.712.712,0,1,1,1.424,0v3.156A.712.712,0,0,1,19.9,43.7Z" transform="translate(-19.185 -39.12)" fill="#13141d"/>
        </g>
      </g>
      <g id="CIRCLE_37_" transform="translate(11.833)">
        <g id="Group_1899" data-name="Group 1899">
          <path id="Path_4212" data-name="Path 4212" d="M29.587,27.432a5.972,5.972,0,1,1,5.972-5.972A6.052,6.052,0,0,1,29.587,27.432Zm0-10.519a4.547,4.547,0,1,0,4.547,4.547A4.608,4.608,0,0,0,29.587,16.913Z" transform="translate(-23.615 -15.489)" fill="#13141d"/>
        </g>
      </g>
      <g id="ARC_418_" transform="translate(19.196 10.519)">
        <g id="Group_1900" data-name="Group 1900">
          <path id="Path_4213" data-name="Path 4213" d="M40.977,37.994a.712.712,0,0,1-.712-.712,5.6,5.6,0,0,0-5.6-5.6.712.712,0,1,1,0-1.424,7.031,7.031,0,0,1,7.023,7.023A.712.712,0,0,1,40.977,37.994Z" transform="translate(-33.954 -30.259)" fill="#13141d"/>
        </g>
      </g>
      <g id="LINE_814_" transform="translate(25.507 16.829)">
        <g id="Group_1901" data-name="Group 1901">
          <path id="Path_4214" data-name="Path 4214" d="M43.527,43.7a.712.712,0,0,1-.712-.712V39.832a.712.712,0,1,1,1.424,0v3.156A.712.712,0,0,1,43.527,43.7Z" transform="translate(-42.815 -39.12)" fill="#13141d"/>
        </g>
      </g>
      <g id="ARC_417_" transform="translate(8.678 19.985)">
        <g id="Group_1902" data-name="Group 1902">
          <path id="Path_4215" data-name="Path 4215" d="M28.311,47.083a18.583,18.583,0,0,1-8.75-2.191.713.713,0,1,1,.671-1.258,17.138,17.138,0,0,0,16.158,0,.713.713,0,1,1,.671,1.258,18.6,18.6,0,0,1-8.75,2.191Z" transform="translate(-19.184 -43.551)" fill="#13141d"/>
        </g>
      </g>
      <g id="CIRCLE_36_" transform="translate(2.367 1.315)">
        <g id="Group_1903" data-name="Group 1903">
          <path id="Path_4216" data-name="Path 4216" d="M14.979,26.648a4.656,4.656,0,1,1,4.656-4.656A4.718,4.718,0,0,1,14.979,26.648Zm0-7.888a3.232,3.232,0,1,0,3.232,3.232A3.275,3.275,0,0,0,14.979,18.76Z" transform="translate(-10.323 -17.336)" fill="#13141d"/>
        </g>
      </g>
      <g id="ARC_416_" transform="translate(0.001 9.204)">
        <g id="Group_1904" data-name="Group 1904">
          <path id="Path_4217" data-name="Path 4217" d="M7.712,34.57A.712.712,0,0,1,7,33.858a5.452,5.452,0,0,1,5.445-5.445.712.712,0,1,1,0,1.424,4.025,4.025,0,0,0-4.021,4.021A.712.712,0,0,1,7.712,34.57Z" transform="translate(-7 -28.413)" fill="#13141d"/>
        </g>
      </g>
      <g id="LINE_813_" transform="translate(4.734 9.203)">
        <g id="Group_1905" data-name="Group 1905">
          <path id="Path_4218" data-name="Path 4218" d="M17.514,29.836H14.358a.712.712,0,1,1,0-1.424h3.156a.712.712,0,1,1,0,1.424Z" transform="translate(-13.646 -28.412)" fill="#13141d"/>
        </g>
      </g>
      <g id="LINE_812_" transform="translate(0.001 13.937)">
        <g id="Group_1906" data-name="Group 1906">
          <path id="Path_4219" data-name="Path 4219" d="M7.712,38.85A.712.712,0,0,1,7,38.138V35.771a.712.712,0,1,1,1.424,0v2.367a.712.712,0,0,1-.712.712Z" transform="translate(-7 -35.059)" fill="#13141d"/>
        </g>
      </g>
    </g>
  </g>
</svg>
