<svg id="question" xmlns="http://www.w3.org/2000/svg" width="36.521" height="36.522" viewBox="0 0 36.521 36.522">
  <path id="Path_4065" data-name="Path 4065" d="M13.689,24.083a.87.87,0,0,1-.87-.87V21.83a2.829,2.829,0,0,1,1.365-2.412l1.3-.78a3.052,3.052,0,0,0,1.474-2.6V15.76a3.271,3.271,0,0,0-6.542,0,.87.87,0,1,1-1.739,0,5.01,5.01,0,1,1,10.02,0v.273a4.8,4.8,0,0,1-2.319,4.1l-1.3.78a1.08,1.08,0,0,0-.521.921v1.384a.87.87,0,0,1-.87.87Z" transform="translate(1.094 1.424)" fill="#13141d"/>
  <path id="Path_4066" data-name="Path 4066" d="M1.12,35.975A.87.87,0,0,1,.29,34.844l2.2-6.985a14.707,14.707,0,1,1,4.262,4.433l-5.136,3.53a.869.869,0,0,1-.493.153Zm5.635-5.611a.872.872,0,0,1,.515.169,13.092,13.092,0,1,0-3.106-3.281.87.87,0,0,1,.1.742L2.706,32.96l3.556-2.444a.869.869,0,0,1,.493-.153Z" transform="translate(-0.25 0.547)" fill="#13141d"/>
  <path id="Path_4067" data-name="Path 4067" d="M34.1,30.975a.87.87,0,0,1-.493-.153l-4.591-3.154A.87.87,0,0,1,30,26.234L32.51,27.96l-1.563-4.968a.87.87,0,0,1,.1-.742A13.049,13.049,0,0,0,12.934,4.184a.87.87,0,0,1-.968-1.445A14.788,14.788,0,0,1,32.729,22.859l2.2,6.985a.87.87,0,0,1-.829,1.131Z" transform="translate(1.556 -0.25)" fill="#13141d"/>
  <circle id="Ellipse_18" data-name="Ellipse 18" cx="0.87" cy="0.87" r="0.87" transform="translate(13.913 27.246)" fill="#13141d"/>
</svg>
