<svg xmlns="http://www.w3.org/2000/svg" width="23.432" height="23.543" viewBox="0 0 23.432 23.543">
  <path id="whatsapp" d="M20.267,3.421A11.669,11.669,0,0,0,1.905,17.5L.25,23.543l6.185-1.622a11.654,11.654,0,0,0,5.575,1.42h0a11.671,11.671,0,0,0,8.252-19.92ZM12.014,21.371h0a9.685,9.685,0,0,1-4.935-1.352l-.354-.21-3.67.963.98-3.578L3.8,16.827a9.7,9.7,0,1,1,8.214,4.544Zm5.319-7.262c-.291-.146-1.725-.851-1.992-.948s-.462-.146-.656.146-.753.948-.923,1.143-.34.219-.632.073a7.962,7.962,0,0,1-2.344-1.447,8.793,8.793,0,0,1-1.622-2.019c-.17-.292,0-.435.128-.595a8.246,8.246,0,0,0,.729-1A.536.536,0,0,0,10,8.953c-.073-.146-.656-1.581-.9-2.165-.237-.568-.477-.491-.656-.5s-.364-.01-.559-.01a1.071,1.071,0,0,0-.777.365,3.269,3.269,0,0,0-1.02,2.432,5.671,5.671,0,0,0,1.19,3.016,12.994,12.994,0,0,0,4.98,4.4,16.686,16.686,0,0,0,1.662.614,4,4,0,0,0,1.836.116,3,3,0,0,0,1.968-1.386,2.436,2.436,0,0,0,.17-1.386C17.819,14.327,17.625,14.255,17.333,14.109Zm0,0" transform="translate(-0.25)" fill="#13141d" fill-rule="evenodd"/>
</svg>
