<svg id="Group_1472" data-name="Group 1472" xmlns="http://www.w3.org/2000/svg" width="41.034" height="61.458" viewBox="0 0 41.034 61.458">
  <path id="Path_9" data-name="Path 9" d="M130.81,4.231a4.23,4.23,0,1,0-4.23,4.23,4.23,4.23,0,0,0,4.23-4.23" transform="translate(-89.781 -0.001)" fill="#0027ff"/>
  <path id="Path_10" data-name="Path 10" d="M50.5,40.7a15.13,15.13,0,1,0-15.13,15.13A15.13,15.13,0,0,0,50.5,40.7" transform="translate(-14.854 -18.765)" fill="#0027ff"/>
  <path id="Path_11" data-name="Path 11" d="M38.406,133.522l0-.007-.005,0a10.089,10.089,0,0,0-1-.958H37.4c1.218-1.384.349-11.732.349-11.732h0a15.944,15.944,0,0,1-14.582,9.493h0c-1.231,0-2.726.016-3.926.016l-.024,0,.012,0H17.3c-4.417,0-2.743,0-7.16.005a13.013,13.013,0,0,0-1.919.147,9.917,9.917,0,0,0-8.092,8.136l0,0v0a9.253,9.253,0,0,0,.031,3.3,9.871,9.871,0,0,0,9.888,8.189c4.491,0,2.89.005,7.38,0h0c4.685,0,8.862-.016,13.547-.021a10.229,10.229,0,0,0,4.985-1.262h0v0a9.939,9.939,0,0,0,4.9-6.924,9.8,9.8,0,0,0-2.462-8.387" transform="translate(0 -88.661)" fill="#0027ff"/>
</svg>
